<?xml version="1.0" encoding="iso-8859-1"?>
<!-- Generator: Adobe Illustrator 13.0.0, SVG Export Plug-In . SVG Version: 6.00 Build 14948)  -->
<!DOCTYPE svg PUBLIC "-//W3C//DTD SVG 1.1//EN" "http://www.w3.org/Graphics/SVG/1.1/DTD/svg11.dtd">
<svg width="250" height="100" xmlns="http://www.w3.org/2000/svg">
 <g>
  <title>Layer 1</title>
  <g id="svg_1">
   <path id="svg_2" d="m59.6209,58.9736c4.9561,-1.733 9.9161,-3.4616 14.9089,-5.1423c1.858,-0.662 3.7219,-1.312 5.5838,-1.9696c-0.0481,-4.4072 0.0231,-8.8228 -0.0424,-13.2345c0.054,-5.6681 0.027,-11.336 0.0116,-17.0041c-4.6596,2.2104 -9.3732,4.3675 -14.0039,6.6065c-2.1046,0.9825 -4.2591,1.9287 -6.2809,2.9929c0,0 -0.2907,20.1953 -0.1771,27.7511l0,0l0,0z" fill="#892326"/>
   <path id="svg_3" d="m87.0589,49.5037c0.926,-0.3217 1.8658,-0.6467 2.7958,-0.9826c5.9361,2.6491 11.7893,5.3909 17.6503,8.1295c0.069,-5.2699 0.18501,-10.5529 -0.091,-15.8143l-0.009,0.0662l-0.164,-0.3518c-6.727,-3.1513 -13.4142,-6.3546 -20.1764,-9.4658c-0.0443,3.598 -0.0231,7.201 -0.01929,10.8001c0.0039,2.5386 -0.0231,5.0852 0.0135,7.6187l0,0l0.0001,0l0,0l0,0z" fill="#892326"/>
   <path id="svg_4" d="m33.48845,67.94396c6.2925,-2.18342 12.9295,-4.47481 19.1449,-6.76511c0,0 -0.0385,-17.78301 0,-26.87115c-6.4175,2.96704 -12.7543,6.00682 -19.1622,8.9817c0,1.42653 -0.0116,2.85633 0.0154,4.27741c-0.0154,6.79893 -0.0154,13.58695 0.0019,20.37715l0,0z" fill="#892326"/>
   <path id="svg_5" d="m133.66701,68.6573c0.00499,-3.0631 -0.00401,-6.1262 0,-9.1802c-0.00401,-2.2584 0.00499,-4.5129 -0.00401,-6.7661c-6.408,-2.9632 -12.745,-6.0003 -19.132,-8.9816c-0.042,5.3682 0,10.7442 -0.042,16.1162c2.149,0.9826 4.292,1.9755 6.429,2.9749c4.28,1.9092 8.44501,3.9418 12.74901,5.8368l0,0z" fill="#892326"/>
   <g id="svg_6">
    <path id="svg_7" d="m89.1288,51.7472c-3.7355,1.3676 -73.7724,26.3036 -88.31934,31.3313c2.53777,-0.4984 83.90614,-22.5562 89.36474,-23.9151c0.7779,0.2606 56.9878,19.8275 58.35279,20.0652c-8.02199,-3.9317 -58.65509,-27.1521 -59.39829,-27.4814l0.0001,0l0,0l0,0z" fill="#272525"/>
    <g id="svg_8">
     <path id="svg_9" d="m59.5843,70.2239c0.0154,2.3051 -0.0712,4.6115 0.0424,6.9127c6.8296,-0.0402 13.6477,-0.0039 20.4716,-0.01949c0,-1.8106 0,-3.6199 0,-5.424c0,-2.2753 -0.0039,-4.544 -0.0039,-6.8206c-6.8412,1.77821 -13.6766,3.5602 -20.5101,5.3514l0,0l0,0l0,0z" fill="#272525"/>
     <path id="svg_10" d="m114.504,77.1183c5.299,-0.036 10.6,0.0752 15.901,-0.0622c-5.247,-1.9991 -10.618,-3.8357 -15.897,-5.7857c-0.01,1.9467 0,3.8989 -0.00401,5.8479l0,0l0,0l0,0l0,0z" fill="#272525"/>
     <path id="svg_11" d="m107.335,68.5395c-2.629,-0.7744 -5.092,-1.781 -7.6182,-2.68729c-3.0403,-1.10371 -6.046,-2.2598 -9.1094,-3.3384c-1.2111,-0.4472 -2.428,0.337 -3.5775,0.5431c0.0212,1.5661 0.0173,3.1257 0.0173,4.6875c0.0039,2.1332 -0.01151,4.2643 0,6.3965c0,0.9902 0,1.9805 0.0039,2.9773c6.8489,-0.0076 13.69189,0.02399 20.5439,-0.0185c-0.188,-2.8509 0.249,-5.7236 -0.26,-8.5603l0,0l0,0.0001l0,0l0,0z" fill="#272525"/>
     <path id="svg_12" d="m39.6596,75.51551c-1.73677,0.47114 -3.56404,0.83067 -5.14677,1.53674c6.04019,0.14407 12.09194,0.04024 18.1379,0.0584c-0.01733,-1.67303 -0.01733,-3.35383 -0.00578,-5.03204c-4.36311,1.08247 -8.66074,2.27656 -12.98535,3.4369z" fill="#272525"/>
    </g>
   </g>
  </g>
  <defs>
  <style type="text/css">
   <![CDATA[
    @font-face {
        font-family: Nobile;
        src: url('/raw_assets/fonts/Nobile-Regular.ttf');
    }
   ]]>
 </style>
</defs>
<text x="100" y="100" style="font-family: 'Nobile'; font-weight:normal; font-style: normal">
 Text using CSS @font-face
</text>
<!--   <text fill="#000000" stroke="#000000" stroke-width="0" x="82.65957" y="94.68085" id="svg_13" font-size="24" font-family="glyph" text-anchor="middle" xml:space="preserve">Shared Roof</text> -->
 </g>
</svg>