<?xml version="1.0" encoding="utf-8"?>
<!-- Generator: Adobe Illustrator 16.0.0, SVG Export Plug-In . SVG Version: 6.00 Build 0)  -->
<!DOCTYPE svg PUBLIC "-//W3C//DTD SVG 1.1//EN" "http://www.w3.org/Graphics/SVG/1.1/DTD/svg11.dtd">
<svg version="1.1" id="Pictogram" xmlns="http://www.w3.org/2000/svg" xmlns:xlink="http://www.w3.org/1999/xlink" x="0px" y="0px"
	 width="200px" height="200px" viewBox="0 0 400 400" enable-background="new 0 0 0 0" xml:space="preserve">
<path fill="#ff0000" d="M294.521,216.793c2.359,2.357,3.043,4.63,3.043,6.984v90.429c0,4.56-3.729,8.266-8.26,8.266h-45.5
	c-4.535,0-8.238-3.7-8.219-8.245v-64.018c0-4.557-3.715-8.266-8.236-8.266h-53.266c-4.545,0-8.245,3.711-8.245,8.266v64.019
	c0,4.558-3.708,8.272-8.236,8.272H110.68c-4.528,0-8.243-3.723-8.243-8.272v-90.45c0-2.354,0.683-4.625,3.043-6.982l88.914-76.552
	c3.305-3.304,8.663-3.304,11.967,0L294.521,216.793z M334.544,188.864l-34.108-29.492v-41.646c0-3.327-2.686-6.024-5.996-6.024
	h-28.752c-3.312,0-5.996,2.698-5.996,6.024v6.416L209.75,80.958c-5.249-4.596-13.064-4.611-18.333-0.037L65.503,188.848
	c-14.847,12.893,3.444,34.151,18.29,21.255l116.73-99.95l115.646,99.894C330.96,222.997,349.333,201.813,334.544,188.864z"/>
</svg>
